<?xml version="1.0" encoding="UTF-8" standalone="no"?>
<!-- Created with Inkscape (http://www.inkscape.org/) -->

<svg
   width="116.04522mm"
   height="11.215013mm"
   viewBox="0 0 116.04522 11.215013"
   version="1.1"
   id="svg1"
   inkscape:version="1.3.1 (9b9bdc1480, 2023-11-25, custom)"
   sodipodi:docname="logo.svg"
   xmlns:inkscape="http://www.inkscape.org/namespaces/inkscape"
   xmlns:sodipodi="http://sodipodi.sourceforge.net/DTD/sodipodi-0.dtd"
   xmlns="http://www.w3.org/2000/svg"
   xmlns:svg="http://www.w3.org/2000/svg">
  <sodipodi:namedview
     id="namedview1"
     pagecolor="#ffffff"
     bordercolor="#000000"
     borderopacity="0.25"
     inkscape:showpageshadow="2"
     inkscape:pageopacity="0.0"
     inkscape:pagecheckerboard="0"
     inkscape:deskcolor="#d1d1d1"
     inkscape:document-units="mm"
     inkscape:zoom="0.54047838"
     inkscape:cx="266.43064"
     inkscape:cy="299.73447"
     inkscape:window-width="1850"
     inkscape:window-height="1016"
     inkscape:window-x="0"
     inkscape:window-y="0"
     inkscape:window-maximized="1"
     inkscape:current-layer="g2"
     showgrid="false" />
  <defs
     id="defs1" />
  <g
     inkscape:label="Layer 1"
     inkscape:groupmode="layer"
     id="layer1"
     transform="translate(-19.911249,-15.269154)">
    <g
       id="g2">
      <rect
         style="fill:#e4150b;fill-opacity:1;stroke-width:1;stroke-linecap:round;stroke-linejoin:round"
         id="rect1"
         width="11.483755"
         height="11.215013"
         x="19.911249"
         y="15.269154" />
      <path
         style="-inkscape-font-specification:'Russo One';fill:#000000;stroke-linecap:round;stroke-linejoin:round"
         d="m 40.424338,22.887495 h -1.270001 v -3.951114 h -1.76389 v 3.951114 h -1.27 v -4.938892 h 4.303891 z m 2.222498,-2.928057 q -0.282222,0 -0.282222,0.282222 v 0.388056 h 1.199445 V 20.24166 q 0,-0.282222 -0.282222,-0.282222 z m 2.010835,2.857501 q -1.361723,0.141112 -2.469446,0.141112 -0.479778,0 -0.769056,-0.289278 -0.289278,-0.289278 -0.289278,-0.769056 v -1.693335 q 0,-0.529167 0.296334,-0.8255 0.303389,-0.303389 0.832556,-0.303389 h 1.411112 q 0.529167,0 0.8255,0.303389 0.303389,0.296333 0.303389,0.8255 v 1.305279 h -2.434168 v 0.282222 q 0,0.105834 0.07056,0.176389 0.07055,0.07056 0.176389,0.07056 0.6985,0 2.046112,-0.105834 z m 2.892769,-2.71639 v 2.786946 h -1.234723 v -2.786946 h -1.164168 v -0.952501 h 3.563058 v 0.952501 z m 3.668888,0 q -0.373944,0 -0.846667,0.141111 v 1.693334 h 1.058334 q 0.282223,0 0.282223,-0.282222 v -1.305279 q 0,-0.105833 -0.07056,-0.176389 -0.07056,-0.07055 -0.176389,-0.07055 z m -0.846667,2.786946 v 1.199445 h -1.234723 v -4.938892 h 1.093612 l 0.07055,0.352778 q 0.331612,-0.218722 0.677334,-0.3175 0.352778,-0.105833 0.592667,-0.105833 h 0.317501 q 0.479778,0 0.769056,0.289278 0.289278,0.289278 0.289278,0.769056 v 1.622778 q 0,0.529167 -0.30339,0.832557 -0.296333,0.296333 -0.8255,0.296333 z m 7.020277,-1.058334 q 0,0.529167 -0.303389,0.832556 -0.296333,0.296334 -0.8255,0.296334 H 54.64127 q -0.529167,0 -0.832556,-0.296334 -0.296334,-0.303389 -0.296334,-0.832556 v -1.622779 q 0,-0.529167 0.296334,-0.8255 0.303389,-0.303389 0.832556,-0.303389 h 1.622779 q 0.529167,0 0.8255,0.303389 0.303389,0.296333 0.303389,0.8255 z m -1.234723,-1.516945 q 0,-0.282223 -0.282222,-0.282223 h -0.846667 q -0.282223,0 -0.282223,0.282223 v 1.411112 q 0,0.282222 0.282223,0.282222 h 0.846667 q 0.282222,0 0.282222,-0.282222 z m 4.903608,-1.164168 v 0.952501 h -1.799168 v 2.786946 h -1.234723 v -3.739447 z m 2.504723,0.952501 q -0.373945,0 -0.846667,0.141111 v 1.693334 h 1.058334 q 0.282222,0 0.282222,-0.282222 v -1.305279 q 0,-0.105833 -0.07056,-0.176389 -0.07055,-0.07055 -0.176389,-0.07055 z m -0.846667,2.786946 v 1.199445 h -1.234723 v -4.938892 h 1.093611 l 0.07056,0.352778 q 0.331611,-0.218722 0.677334,-0.3175 0.352778,-0.105833 0.592667,-0.105833 h 0.3175 q 0.479778,0 0.769056,0.289278 0.289278,0.289278 0.289278,0.769056 v 1.622778 q 0,0.529167 -0.303389,0.832557 -0.296334,0.296333 -0.825501,0.296333 z m 4.69194,-0.917223 q 0.373945,0 0.846667,-0.141111 V 21.405827 H 67.23543 q -0.105833,0 -0.176389,0.07056 -0.07055,0.07056 -0.07055,0.176389 v 0.07056 q 0,0.105833 0.07055,0.176389 0.07056,0.07056 0.176389,0.07056 z m -1.305278,-2.751668 q 1.291167,-0.141111 2.328334,-0.141111 0.479778,0 0.769056,0.289278 0.289278,0.289278 0.289278,0.769056 v 2.751668 h -1.093611 l -0.07056,-0.352778 q -0.331611,0.218722 -0.684389,0.324556 -0.345723,0.09878 -0.585612,0.09878 h -0.246944 q -0.479779,0 -0.769057,-0.289278 -0.289277,-0.289278 -0.289277,-0.769056 v -0.317501 q 0,-0.479778 0.289277,-0.769056 0.289278,-0.289278 0.769057,-0.289278 h 1.446389 V 20.24166 q 0,-0.105833 -0.07055,-0.176389 -0.07056,-0.07056 -0.176389,-0.07056 -0.458612,0 -1.016001,0.04233 -0.550334,0.04233 -0.889,0.0635 z m 5.679722,1.905001 q -0.03528,0.493889 -0.282222,0.811389 h 1.234723 v -1.834445 h -0.881945 z m 2.187224,-1.975557 v 2.786946 h 0.529167 v 1.799168 h -1.171223 l -0.07056,-0.846667 h -2.173112 l -0.07056,0.846667 h -1.171223 v -1.799168 h 0.458612 q 0.282222,-0.331611 0.3175,-0.740833 l 0.141111,-2.046113 z m 4.339157,3.668891 q -1.319389,0.141112 -2.328335,0.141112 -0.479778,0 -0.769056,-0.289278 -0.289278,-0.289278 -0.289278,-0.769056 v -1.622779 q 0,-0.529167 0.296334,-0.825501 0.303389,-0.303389 0.832556,-0.303389 h 2.257779 v 0.952501 h -1.869723 q -0.282223,0 -0.282223,0.282222 v 1.375834 q 0,0.105834 0.07056,0.176389 0.07056,0.07056 0.176389,0.07056 0.635,0 1.905001,-0.105833 z m 2.328331,-1.340556 h -0.529167 v 1.411112 h -1.234723 v -3.739447 h 1.234723 v 1.375834 h 0.564445 l 0.388056,-0.776111 q 0.211667,-0.451556 0.663223,-0.613834 0.162277,-0.05644 0.310444,-0.05644 0.239889,0 0.437445,0.03528 l 0.176389,0.03528 v 0.952501 h -0.246945 q -0.239889,0 -0.352778,0.211667 l -0.352778,0.705556 1.058334,1.869723 h -1.340556 z m 4.903604,-2.328335 h 1.305279 v 3.739447 h -1.234723 v -2.046112 l -1.199445,2.046112 h -1.305279 v -3.739447 h 1.234723 v 2.046113 z m 3.492496,-0.352778 q -0.917223,0 -0.917223,-0.917223 v -0.211666 h 0.917223 v 0.176389 q 0,0.105833 0.07055,0.176389 0.07056,0.07056 0.176389,0.07056 h 0.211667 q 0.105834,0 0.176389,-0.07056 0.07056,-0.07056 0.07056,-0.176389 v -0.176389 h 0.917223 v 0.211666 q 0,0.917223 -0.917223,0.917223 z m 0.9525,0.352778 h 1.305279 v 3.739447 h -1.234723 v -2.046112 l -1.199445,2.046112 h -1.305279 v -3.739447 h 1.234723 v 2.046113 z m 5.891383,2.328335 h -0.529167 v 1.411112 h -1.234723 v -3.739447 h 1.234723 v 1.375834 h 0.564445 l 0.388055,-0.776111 q 0.211667,-0.451556 0.663223,-0.613834 0.162278,-0.05644 0.310445,-0.05644 0.239889,0 0.437445,0.03528 l 0.176389,0.03528 v 0.952501 h -0.246945 q -0.239889,0 -0.352778,0.211667 l -0.352778,0.705556 1.058334,1.869723 H 96.65707 Z m 4.550822,-1.375834 q -0.37394,0 -0.846663,0.141111 v 1.693334 h 1.058333 q 0.28222,0 0.28222,-0.282222 v -1.305279 q 0,-0.105833 -0.0705,-0.176389 -0.0706,-0.07055 -0.17639,-0.07055 z m -0.846663,2.786946 v 1.199445 h -1.234723 v -4.938892 h 1.093612 l 0.07055,0.352778 q 0.331612,-0.218722 0.677344,-0.3175 0.35277,-0.105833 0.59265,-0.105833 h 0.3175 q 0.47978,0 0.76906,0.289278 0.28928,0.289278 0.28928,0.769056 v 1.622778 q 0,0.529167 -0.30338,0.832557 -0.29634,0.296333 -0.82551,0.296333 z m 4.691943,-0.917223 q 0.37394,0 0.84666,-0.141111 v -0.423334 h -1.02305 q -0.10584,0 -0.17639,0.07056 -0.0706,0.07056 -0.0706,0.176389 v 0.07056 q 0,0.105833 0.0706,0.176389 0.0705,0.07056 0.17639,0.07056 z m -1.30528,-2.751668 q 1.29117,-0.141111 2.32833,-0.141111 0.47978,0 0.76906,0.289278 0.28928,0.289278 0.28928,0.769056 v 2.751668 h -1.09361 l -0.0706,-0.352778 q -0.33161,0.218722 -0.68439,0.324556 -0.34572,0.09878 -0.58561,0.09878 h -0.24695 q -0.47977,0 -0.76905,-0.289278 -0.28928,-0.289278 -0.28928,-0.769056 v -0.317501 q 0,-0.479778 0.28928,-0.769056 0.28928,-0.289278 0.76905,-0.289278 h 1.44639 V 20.24166 q 0,-0.105833 -0.0706,-0.176389 -0.0706,-0.07056 -0.17639,-0.07056 -0.45861,0 -1.016,0.04233 -0.55033,0.04233 -0.889,0.0635 z m 5.46805,0.740834 q -0.28222,0 -0.28222,0.282222 v 0.388056 h 1.19944 V 20.24166 q 0,-0.282222 -0.28222,-0.282222 z m 2.01084,2.857501 q -1.36173,0.141112 -2.46945,0.141112 -0.47978,0 -0.76906,-0.289278 -0.28927,-0.289278 -0.28927,-0.769056 v -1.693335 q 0,-0.529167 0.29633,-0.8255 0.30339,-0.303389 0.83256,-0.303389 h 1.41111 q 0.52916,0 0.8255,0.303389 0.30339,0.296333 0.30339,0.8255 v 1.305279 h -2.43417 v 0.282222 q 0,0.105834 0.0705,0.176389 0.0706,0.07056 0.17639,0.07056 0.6985,0 2.04612,-0.105834 z m 0.56443,-0.846667 q 1.34762,0.105834 2.11667,0.105834 0.10584,0 0.17639,-0.07056 0.0706,-0.07056 0.0706,-0.176389 v -0.105833 q 0,-0.105834 -0.0706,-0.176389 -0.0705,-0.07056 -0.17639,-0.07056 h -1.55222 V 20.59443 h 1.41111 q 0.10583,0 0.17639,-0.07056 0.0706,-0.07055 0.0706,-0.176389 v -0.07055 q 0,-0.105834 -0.0706,-0.176389 -0.0706,-0.07056 -0.17639,-0.07056 h -1.905 v -0.881945 h 2.32833 q 0.47273,0 0.76201,0.282223 0.29633,0.275166 0.29633,0.620889 0,0.705556 -0.635,0.860778 0.3175,0.05645 0.54328,0.310445 0.23283,0.254 0.23283,0.705556 0,0.451556 -0.28928,0.740834 -0.28928,0.289278 -0.76905,0.289278 -1.17828,0 -2.54001,-0.141112 z m 6.59694,-1.44639 v -1.375834 h 1.23472 v 3.739447 h -1.23472 v -1.411112 h -1.27 v 1.411112 h -1.23472 v -3.739447 h 1.23472 v 1.375834 z m 3.42194,1.44639 q 0.37395,0 0.84667,-0.141111 v -0.423334 h -1.02305 q -0.10584,0 -0.17639,0.07056 -0.0706,0.07056 -0.0706,0.176389 v 0.07056 q 0,0.105833 0.0706,0.176389 0.0706,0.07056 0.17639,0.07056 z m -1.30527,-2.751668 q 1.29116,-0.141111 2.32833,-0.141111 0.47978,0 0.76906,0.289278 0.28928,0.289278 0.28928,0.769056 v 2.751668 h -1.09362 l -0.0705,-0.352778 q -0.33161,0.218722 -0.68439,0.324556 -0.34572,0.09878 -0.58561,0.09878 h -0.24695 q -0.47978,0 -0.76905,-0.289278 -0.28928,-0.289278 -0.28928,-0.769056 v -0.317501 q 0,-0.479778 0.28928,-0.769056 0.28927,-0.289278 0.76905,-0.289278 h 1.44639 V 20.24166 q 0,-0.105833 -0.0705,-0.176389 -0.0706,-0.07056 -0.17639,-0.07056 -0.45861,0 -1.016,0.04233 -0.55034,0.04233 -0.889,0.0635 z m 6.13833,0.881945 v 2.786946 h -1.23473 v -2.786946 h -1.16416 v -0.952501 h 3.56305 v 0.952501 z m 3.03389,-0.141111 q -0.28222,0 -0.28222,0.282222 v 0.388056 h 1.19944 V 20.24166 q 0,-0.282222 -0.28222,-0.282222 z m 2.01083,2.857501 q -1.36172,0.141112 -2.46944,0.141112 -0.47978,0 -0.76906,-0.289278 -0.28928,-0.289278 -0.28928,-0.769056 v -1.693335 q 0,-0.529167 0.29634,-0.8255 0.30339,-0.303389 0.83255,-0.303389 h 1.41111 q 0.52917,0 0.82551,0.303389 0.30338,0.296333 0.30338,0.8255 v 1.305279 h -2.43416 v 0.282222 q 0,0.105834 0.0705,0.176389 0.0706,0.07056 0.17639,0.07056 0.6985,0 2.04611,-0.105834 z m 3.80999,0.07056 h -3.03389 v -3.739447 h 1.23472 v 2.786946 h 1.27 v -2.786946 h 1.23473 v 2.786946 h 0.52916 v 1.799168 h -1.16416 z"
         id="text1"
         aria-label="Петроградский краезнатец" />
    </g>
  </g>
</svg>
